<svg width="63" height="64" viewBox="0 0 63 64" fill="none" xmlns="http://www.w3.org/2000/svg">
<g id="Group 26">
<path id="Fill 3" fill-rule="evenodd" clip-rule="evenodd" d="M22.4019 39.0005H50.4019V9.00049H22.4019V39.0005Z" fill="#101010"/>
<path id="Stroke 5" fill-rule="evenodd" clip-rule="evenodd" d="M22.4019 39.0005H50.4019V9.00049H22.4019V39.0005Z" stroke="white" stroke-width="2"/>
<path id="Stroke 6" d="M43.4014 14V6.752C43.4014 3.505 39.6684 1 36.4014 1C33.1344 1 29.4014 3.505 29.4014 6.752V14" stroke="white" stroke-width="2"/>
<path id="Stroke 7" d="M31.4014 14H27.4014" stroke="white" stroke-width="2"/>
<path id="Stroke 8" d="M41.4014 14H45.4014" stroke="white" stroke-width="2"/>
<path id="Fill 9" fill-rule="evenodd" clip-rule="evenodd" d="M56.0112 30.155C53.5892 30.717 51.4782 32.173 49.8442 35.351L44.4012 38L44.2142 38.094C43.5892 37.438 42.6512 37 41.4012 37H35.5832C34.4412 37 31.0692 35 29.2602 35H21.8392C19.9882 35 17.6182 35.613 16.2892 36.851C14.2362 38.905 9.01422 43.839 8.42822 44.315C11.6942 47.14 18.4922 53.616 19.9922 54.941C22.0232 52.91 22.8172 51 24.4952 51H42.7692C44.2922 51 52.6112 43.413 53.6762 42.219C54.6992 41.072 60.1362 34.038 61.4012 31.079C60.6072 30.009 58.5492 29.566 56.0112 30.155Z" fill="#101010"/>
<path id="Stroke 10" d="M30.4012 44H41.4012C46.4012 44 46.4012 37 41.4012 37H35.5822C34.4412 37 31.0692 35 29.2592 35H21.8382C19.9872 35 17.6182 35.613 16.2892 36.851C14.2352 38.904 9.01325 43.838 8.42725 44.314C11.6932 47.14 18.4912 53.616 19.9922 54.94C22.0232 52.91 22.8172 51 24.4952 51H42.7692C44.2922 51 52.6112 43.413 53.6752 42.219C54.6992 41.071 60.1362 34.038 61.4012 31.079C60.6072 30.009 58.5482 29.565 56.0112 30.155C53.5882 30.717 51.4772 32.172 49.8442 35.351L44.4012 38" stroke="white" stroke-width="2"/>
<path id="Fill 11" fill-rule="evenodd" clip-rule="evenodd" d="M17.4881 62.0002L24.2751 55.2112L9.20106 40.1372L2.41406 46.9262L17.4881 62.0002Z" fill="#101010"/>
<path id="Stroke 12" fill-rule="evenodd" clip-rule="evenodd" d="M17.4881 62.0002L24.2751 55.2112L9.20106 40.1372L2.41406 46.9262L17.4881 62.0002Z" stroke="white" stroke-width="2"/>
<path id="Stroke 13" d="M7.99658 45.9829L10.6256 48.6119" stroke="white" stroke-width="2"/>
<path id="Stroke 14" d="M58.4014 15V17" stroke="#E7C35D" stroke-width="2"/>
<path id="Stroke 15" d="M58.4014 19V21" stroke="#E7C35D" stroke-width="2"/>
<path id="Stroke 16" d="M57.4014 18H55.4014" stroke="#E7C35D" stroke-width="2"/>
<path id="Stroke 17" d="M61.4014 18H59.4014" stroke="#E7C35D" stroke-width="2"/>
<path id="Stroke 18" d="M52.4014 54H49.4014" stroke="#E7C35D" stroke-width="2"/>
<path id="Stroke 19" d="M59.4014 54H56.4014" stroke="#E7C35D" stroke-width="2"/>
<path id="Stroke 20" d="M54.4014 56V59" stroke="#E7C35D" stroke-width="2"/>
<path id="Stroke 21" d="M54.4014 49V52" stroke="#E7C35D" stroke-width="2"/>
<path id="Stroke 22" d="M3.40137 15L1.40137 17" stroke="#E7C35D" stroke-width="2"/>
<path id="Stroke 23" d="M8.40137 10L6.40137 12" stroke="#E7C35D" stroke-width="2"/>
<path id="Stroke 24" d="M6.40137 15L8.40137 17" stroke="#E7C35D" stroke-width="2"/>
<path id="Stroke 25" d="M1.40137 10L3.40137 12" stroke="#E7C35D" stroke-width="2"/>
</g>
</svg>
