<svg width="64" height="61" viewBox="0 0 64 61" fill="none" xmlns="http://www.w3.org/2000/svg">
<g id="Group 53">
<g id="Group 3">
<path id="Stroke 1" d="M0 24H9" stroke="#E7C35D" stroke-width="2"/>
</g>
<path id="Fill 6" fill-rule="evenodd" clip-rule="evenodd" d="M25.4129 58.175C26.9779 59.74 29.5149 59.74 31.0799 58.175L54.9189 34.336C55.6749 33.58 56.0049 32.553 55.9999 31.484V15.57L48.5229 8.00004H32.6089C31.5399 7.99504 30.5129 8.41804 29.7569 9.17404L5.91789 33.013C4.35289 34.578 4.35289 37.115 5.91789 38.68L25.4129 58.175Z" fill="#101010"/>
<path id="Stroke 8" d="M22.2378 54.9993L25.4138 58.1753C26.9778 59.7403 29.5158 59.7403 31.0808 58.1753L54.9198 34.3353C55.6758 33.5803 56.0048 32.5533 55.9998 31.4843V15.5703L54.2208 13.7793" stroke="#FEFEFE" stroke-width="2"/>
<path id="Stroke 10" d="M21.9309 17L5.91789 33.013C4.35289 34.578 4.35289 37.115 5.91789 38.68L19.2399 52.001" stroke="#FEFEFE" stroke-width="2"/>
<path id="Stroke 12" d="M50.0002 9.55504L48.5232 8.00004H32.6092C31.5402 7.99504 30.5132 8.41704 29.7572 9.17304L24.9312 14" stroke="#FEFEFE" stroke-width="2"/>
<path id="Stroke 16" fill-rule="evenodd" clip-rule="evenodd" d="M46.1479 21.6532L42.2819 17.7872C41.4809 16.9862 41.4809 15.6872 42.2819 14.8862L43.3669 13.8002C44.1679 13.0002 45.4669 13.0002 46.2679 13.8002L50.1339 17.6672C50.9349 18.4682 50.9349 19.7672 50.1339 20.5682L49.0489 21.6532C48.2479 22.4542 46.9489 22.4542 46.1479 21.6532Z" stroke="#FEFEFE" stroke-width="2"/>
<path id="Stroke 20" fill-rule="evenodd" clip-rule="evenodd" d="M38.6145 45.4557L33.5025 45.6497L29.7105 49.0847L25.6695 45.9467L20.5575 46.1407L19.4785 41.1397L15.4375 38.0027L17.8255 33.4777L16.7475 28.4767L21.4845 26.5467L23.8735 22.0217L28.7435 23.5887L33.4805 21.6577L36.2055 25.9877L41.0755 27.5547L40.3785 32.6227L43.1025 36.9527L39.3115 40.3877L38.6145 45.4557Z" stroke="#FEFEFE" stroke-width="2"/>
<g id="Group 25">
<path id="Fill 22" fill-rule="evenodd" clip-rule="evenodd" d="M34.8053 28L23.6973 42.671L34.8053 28Z" fill="#FEFEFE"/>
<path id="Stroke 24" d="M34.8053 28L23.6973 42.671" stroke="#FEFEFE" stroke-width="2"/>
</g>
<path id="Fill 26" fill-rule="evenodd" clip-rule="evenodd" d="M35 40.589C35 41.368 34.368 42 33.589 42H32.411C31.632 42 31 41.368 31 40.589V38.411C31 37.632 31.632 37 32.411 37H33.589C34.368 37 35 37.632 35 38.411V40.589Z" fill="#101010"/>
<path id="Stroke 28" fill-rule="evenodd" clip-rule="evenodd" d="M35 40.589C35 41.368 34.368 42 33.589 42H32.411C31.632 42 31 41.368 31 40.589V38.411C31 37.632 31.632 37 32.411 37H33.589C34.368 37 35 37.632 35 38.411V40.589Z" stroke="#FEFEFE" stroke-width="2"/>
<path id="Fill 30" fill-rule="evenodd" clip-rule="evenodd" d="M28 31.589C28 32.368 27.368 33 26.589 33H25.411C24.632 33 24 32.368 24 31.589V29.411C24 28.632 24.632 28 25.411 28H26.589C27.368 28 28 28.632 28 29.411V31.589Z" fill="#101010"/>
<path id="Stroke 32" fill-rule="evenodd" clip-rule="evenodd" d="M28 31.589C28 32.368 27.368 33 26.589 33H25.411C24.632 33 24 32.368 24 31.589V29.411C24 28.632 24.632 28 25.411 28H26.589C27.368 28 28 28.632 28 29.411V31.589Z" stroke="#FEFEFE" stroke-width="2"/>
<path id="Stroke 34" d="M8 52H26" stroke="#FEFEFE" stroke-width="2"/>
<path id="Stroke 36" d="M43 1H20" stroke="#E7C35D" stroke-width="2"/>
<path id="Stroke 38" d="M33 14H17" stroke="#FEFEFE" stroke-width="2"/>
<path id="Stroke 40" d="M15 14H13" stroke="#FEFEFE" stroke-width="2"/>
<path id="Stroke 42" d="M11 14H9" stroke="#FEFEFE" stroke-width="2"/>
<path id="Stroke 44" d="M18 1H16" stroke="#E7C35D" stroke-width="2"/>
<path id="Stroke 46" d="M47.9922 16C49.1032 13.077 51.9312 11 55.2442 11C59.5272 11 63.0002 14.472 63.0002 18.756C63.0002 21.743 61.3112 24.335 58.8362 25.631C57.7622 26.193 56.5402 26.511 55.2442 26.511" stroke="#FEFEFE" stroke-width="2"/>
<path id="Stroke 48" d="M6 52H4" stroke="#FEFEFE" stroke-width="2"/>
</g>
</svg>
