<svg width="58" height="62" viewBox="0 0 58 62" fill="none" xmlns="http://www.w3.org/2000/svg">
<g id="Group 40">
<path id="Stroke 3" d="M46 4V1H25V10" stroke="#E7C35D" stroke-width="2"/>
<path id="Stroke 5" d="M41 21V14H21V21" stroke="#FEFEFE" stroke-width="2"/>
<path id="Stroke 6" d="M52 21V8H32V14H41V21" stroke="#FEFEFE" stroke-width="2"/>
<path id="Stroke 7" d="M11 30H4" stroke="#FEFEFE" stroke-width="2"/>
<g id="Group 39">
<path id="Stroke 8" d="M2 30H0" stroke="#FEFEFE" stroke-width="2"/>
<g id="Group 12">
<path id="Stroke 10" d="M17.6415 36.994L9.99951 20H-0.000488281" stroke="#FEFEFE" stroke-width="2"/>
</g>
<path id="Stroke 13" d="M16 24H55C56.055 24 57.085 25.147 56.755 26.149L51.649 41.655C50.991 43.651 49.127 45 47.025 45H21" stroke="#FEFEFE" stroke-width="2"/>
<path id="Stroke 15" d="M21 36H5" stroke="#FEFEFE" stroke-width="2"/>
<path id="Stroke 17" d="M13 42H2" stroke="#E7C35D" stroke-width="2"/>
<path id="Stroke 19" d="M27 26V40" stroke="#E7C35D" stroke-width="2"/>
<path id="Stroke 21" d="M35 26V40" stroke="#E7C35D" stroke-width="2"/>
<path id="Stroke 23" d="M43 26V40" stroke="#E7C35D" stroke-width="2"/>
<path id="Stroke 25" d="M48 36H23" stroke="#E7C35D" stroke-width="2"/>
<path id="Stroke 27" d="M50 30H21" stroke="#E7C35D" stroke-width="2"/>
<path id="Stroke 29" d="M19 39C19 39 22.188 47.25 23 49C23.626 50.348 24.75 51 26 51H49" stroke="#FEFEFE" stroke-width="2"/>
<path id="Stroke 33" fill-rule="evenodd" clip-rule="evenodd" d="M27.0145 57.007C27.0145 58.668 25.6685 60.014 24.0075 60.014C22.3465 60.014 20.9995 58.668 20.9995 57.007C20.9995 55.346 22.3465 54 24.0075 54C25.6685 54 27.0145 55.346 27.0145 57.007Z" stroke="#FEFEFE" stroke-width="2"/>
<path id="Stroke 37" fill-rule="evenodd" clip-rule="evenodd" d="M50.0789 57.007C50.0789 58.668 48.7329 60.014 47.0719 60.014C45.4109 60.014 44.0649 58.668 44.0649 57.007C44.0649 55.346 45.4109 54 47.0719 54C48.7329 54 50.0789 55.346 50.0789 57.007Z" stroke="#FEFEFE" stroke-width="2"/>
</g>
</g>
</svg>
