<svg width="34" height="34" viewBox="0 0 34 34" fill="none" xmlns="http://www.w3.org/2000/svg">
<g id="Group 22">
<rect id="Rectangle 5 Copy 18" width="34" height="34" fill="#364A3A"/>
<g id="Group 19">
<g id="Group 29">
<path id="Fill 1" fill-rule="evenodd" clip-rule="evenodd" d="M12.0991 27.0463C9.57128 26.1945 8.17288 23.6836 8.25488 21.2142V7.03015H13.733C10.0977 14.0819 17.6677 15.5216 19.0661 19.9221C20.073 23.0887 17.7832 27.065 14.0005 27.3209C13.373 27.3635 12.7645 27.2703 12.0991 27.0463ZM14.68 7.03003C14.8735 10.5681 18.4872 12.9933 21.149 15.6821C22.9929 12.1587 20.8275 7.03155 16.0414 7.03003H14.68Z" fill="white"/>
<path id="Fill 3" fill-rule="evenodd" clip-rule="evenodd" d="M24.6243 19.1232C25.9322 22.5974 23.7483 27.1514 19.2367 27.1514H16.2024V27.1428H16.1839C19.6466 26.9634 21.8775 23.8662 21.6145 20.767C21.135 15.1027 9.19741 14.2316 14.695 5.00293C12.9391 11.8915 22.6794 13.958 24.6243 19.1232Z" fill="white"/>
</g>
</g>
</g>
</svg>
