<svg xmlns="http://www.w3.org/2000/svg" width="21" height="24" fill="none">
  <g fill="#E7C35D">
    <path fill-rule="evenodd" d="M19.9929 22.4271 18.348 6.41594c-.0275-.25778-.2468-.45828-.4935-.45828h-3.0431v-.97385C14.8114 2.23412 12.673 0 10.0411 0 7.40926 0 5.27086 2.23412 5.27086 4.98381v.97385H2.14552c-.24673 0-.46606.2005-.49347.45828L.0071315 22.4271c-.0274153.1433.0274153.2865.1096615.401.082245.1146.219322.1719.356398.1719H19.5268c.1371 0 .2742-.0573.3564-.1719.0823-.1145.1371-.2577.1097-.401ZM14.5 9c.2812 0 .5.21875.5.5s-.2188.5-.5.5-.5-.21875-.5-.5.2188-.5.5-.5ZM10 1C7.7971 1 6 2.80233 6 5.01163V6h8v-.98837C14 2.80233 12.2029 1 10 1ZM5.5 9c.28125 0 .5.21875.5.5s-.21875.5-.5.5-.5-.21875-.5-.5.21875-.5.5-.5ZM2.53659 7 1 22h18L17.4634 7h-2.7988v.94646c.5488.20077.933.7457.933 1.37668 0 .80306-.6311 1.46276-1.3994 1.46276s-1.3994-.6597-1.3994-1.46276c0-.63098.3841-1.17591.9329-1.37668V7H6.15854v.94646c.54878.20077.93292.7457.93292 1.37668 0 .80306-.63109 1.46276-1.39939 1.46276-.76829 0-1.39939-.6597-1.39939-1.46276 0-.63098.38415-1.17591.93293-1.37668V7H2.53659Z" clip-rule="evenodd"/>
    <path d="m18.348 6.41594.2486-.02555-.0001-.00089-.2485.02644Zm1.6449 16.01116-.2487.0256.0011.0108.002.0107.2456-.0471ZM14.8114 5.95766h-.25v.25h.25v-.25Zm-9.54054 0v.25h.25v-.25h-.25Zm-3.61881.45828-.2486-.02644-.00009.00089.24869.02555ZM.0071315 22.4271l.2455415.0471.00204-.0107.00111-.0108-.2486915-.0256Zm.1096615.401-.2030897.1458.2030897-.1458ZM6 6h-.25v.25H6V6Zm8 0v.25h.25V6H14ZM1 22l-.248699-.0255-.028219.2755H1V22ZM2.53659 7v-.25h-.2257l-.023.22452L2.53659 7ZM19 22v.25h.2769l-.0282-.2755L19 22ZM17.4634 7l.2487-.02548-.023-.22452h-.2257V7Zm-2.7988 0v-.25h-.25V7h.25Zm0 .94646h-.25v.17475l.1641.06003.0859-.23478Zm-.9329 0 .0859.23478.1641-.06003v-.17475h-.25Zm0-.94646h.25v-.25h-.25V7ZM6.15854 7v-.25h-.25V7h.25Zm0 .94646h-.25v.17475l.1641.06003.0859-.23478Zm-.93293 0 .08589.23478.16411-.06003v-.17475h-.25Zm0-.94646h.25v-.25h-.25V7Zm12.87369-.55851 1.6449 16.01121.4974-.0511-1.645-16.01121-.4973.0511Zm-.2448-.23383c.1128 0 .2303.09794.2449.23472l.4971-.05288c-.0402-.37879-.3614-.68184-.742-.68184v.5Zm-3.0431 0h3.0431v-.5h-3.0431v.5Zm-.25-1.22385v.97385h.5v-.97385h-.5ZM10.0411.25c2.4836 0 4.5203 2.11176 4.5203 4.73381h.5c0-2.87733-2.2401-5.23381-5.0203-5.23381v.5ZM5.52086 4.98381C5.52086 2.36176 7.55753.25 10.0411.25v-.5c-2.78012 0-5.02024 2.35648-5.02024 5.23381h.5Zm0 .97385v-.97385h-.5v.97385h.5Zm-3.37534.25h3.12534v-.5H2.14552v.5Zm-.24487.23472c.01454-.13678.13203-.23472.24487-.23472v-.5c-.38063 0-.70179.30305-.74207.68184l.4972.05288ZM.255823 22.4527 1.90074 6.44149l-.49738-.0511L-.24156 22.4016l.497383.0511Zm.064059.2297c-.059929-.0835-.076963-.1573-.067209-.2082l-.491083-.0941c-.045077.2355.047551.4482.1521133.5938l.4061787-.2915Zm.153309.0676c-.071861 0-.126295-.03-.153309-.0676l-.4061787.2915c.1374778.1915.3571967.2761.5594877.2761v-.5Zm19.053609 0H.473191v.5H19.5268v-.5Zm.1533-.0676c-.027.0376-.0814.0676-.1533.0676v.5c.2023 0 .422-.0846.5595-.2761l-.4062-.2915Zm.0672-.2082c.0098.0509-.0073.1247-.0672.2082l.4062.2915c.1046-.1456.1972-.3583.1521-.5938l-.4911.0941ZM15.25 9.5c0-.41932-.3307-.75-.75-.75v.5c.1432 0 .25.10682.25.25h.5Zm-.75.75c.4193 0 .75-.33068.75-.75h-.5c0 .14318-.1068.25-.25.25v.5Zm-.75-.75c0 .41932.3307.75.75.75v-.5c-.1432 0-.25-.10682-.25-.25h-.5Zm.75-.75c-.4193 0-.75.33068-.75.75h.5c0-.14318.1068-.25.25-.25v-.5ZM6.25 5.01163C6.25 2.93971 7.93586 1.25 10 1.25v-.5c-2.34165 0-4.25 1.91494-4.25 4.26163h.5ZM6.25 6v-.98837h-.5V6h.5ZM14 5.75H6v.5h8v-.5Zm-.25-.73837V6h.5v-.98837h-.5ZM10 1.25c2.0641 0 3.75 1.68971 3.75 3.76163h.5C14.25 2.66494 12.3417.75 10 .75v.5ZM6.25 9.5c0-.41932-.33068-.75-.75-.75v.5c.14318 0 .25.10682.25.25h.5Zm-.75.75c.41932 0 .75-.33068.75-.75h-.5c0 .14318-.10682.25-.25.25v.5Zm-.75-.75c0 .41932.33068.75.75.75v-.5c-.14318 0-.25-.10682-.25-.25h-.5Zm.75-.75c-.41932 0-.75.33068-.75.75h.5c0-.14318.10682-.25.25-.25v-.5ZM1.2487 22.0255 2.78528 7.02548l-.49739-.05096L.751301 21.9745l.497399.051ZM19 21.75H1v.5h18v-.5ZM17.2147 7.02548l1.5366 15.00002.4974-.051-1.5366-14.99998-.4974.05096ZM14.6646 7.25h2.7988v-.5h-2.7988v.5Zm.25.69646V7h-.5v.94646h.5Zm.933 1.37668c0-.73217-.4463-1.37336-1.0971-1.61146l-.1718.46956c.4468.16344.7689.61211.7689 1.1419h.5Zm-1.6494 1.71276c.9166 0 1.6494-.7822 1.6494-1.71276h-.5c0 .67553-.5295 1.21276-1.1494 1.21276v.5Zm-1.6494-1.71276c0 .93056.7327 1.71276 1.6494 1.71276v-.5c-.6199 0-1.1494-.53723-1.1494-1.21276h-.5Zm1.097-1.61146c-.6508.2381-1.097.87929-1.097 1.61146h.5c0-.52979.3221-.97846.7688-1.1419l-.1718-.46956ZM13.4817 7v.94646h.5V7h-.5Zm-7.32316.25h7.57316v-.5H6.15854v.5Zm.25.69646V7h-.5v.94646h.5Zm.93292 1.37668c0-.73217-.44621-1.37336-1.09703-1.61146l-.17179.46956c.44674.16344.76882.61211.76882 1.1419h.5ZM5.69207 11.0359c.91668 0 1.64939-.7822 1.64939-1.71276h-.5c0 .67553-.52948 1.21276-1.14939 1.21276v.5ZM4.04268 9.32314c0 .93056.73272 1.71276 1.64939 1.71276v-.5c-.61991 0-1.14939-.53723-1.14939-1.21276h-.5Zm1.09704-1.61146c-.65083.2381-1.09704.87929-1.09704 1.61146h.5c0-.52979.32208-.97846.76882-1.1419l-.17178-.46956ZM4.97561 7v.94646h.5V7h-.5Zm-2.43902.25h2.68902v-.5H2.53659v.5Z"/>
  </g>
</svg>