<svg width="21" height="25" viewBox="0 0 21 25" fill="none" xmlns="http://www.w3.org/2000/svg">
<path fill-rule="evenodd" clip-rule="evenodd" d="M20.9817 23.9506L19.4382 7.01268C19.3961 6.55012 19.0027 6.19581 18.5315 6.19581H15.3486V4.78122C15.3486 2.14486 13.1721 0 10.4968 0C7.82171 0 5.64548 2.14486 5.64548 4.78122V6.19581H2.4604C1.98917 6.19581 1.59576 6.55012 1.55364 7.01268L0.00412855 24.0172C-0.0186923 24.2682 0.0665216 24.5169 0.239013 24.7028C0.411504 24.8886 0.655371 24.9945 0.910892 24.9945H20.0811H20.0835C20.5864 24.9945 20.9939 24.5928 20.9939 24.0974C20.9938 24.0475 20.9897 23.9983 20.9817 23.9506ZM7.46629 4.78122C7.46629 3.13421 8.82583 1.79426 10.497 1.79426C12.1682 1.79426 13.5279 3.13421 13.5279 4.78122V6.19581H7.46629V4.78122ZM3.29275 7.99007L1.90675 23.2004H19.0852L17.6992 7.99007H15.3487V9.59438C15.3487 10.0898 14.9412 10.4915 14.4383 10.4915C13.9354 10.4915 13.5279 10.0898 13.5279 9.59438V7.99007H7.46629V9.59438C7.46629 10.0898 7.05879 10.4915 6.55589 10.4915C6.05298 10.4915 5.64548 10.0898 5.64548 9.59438V7.99007H3.29275Z" fill="white"/>
</svg>
