<svg width="34" height="34" viewBox="0 0 34 34" fill="none" xmlns="http://www.w3.org/2000/svg">
<g id="Group 20">
<rect id="Rectangle 5 Copy 18" width="34" height="34" fill="#F35523"/>
<g id="Group 19">
<path id="Stroke 24" d="M22.8053 10L11.6973 24.671" stroke="white" stroke-width="2"/>
<path id="Stroke 28" fill-rule="evenodd" clip-rule="evenodd" d="M23 22.589C23 23.368 22.368 24 21.589 24H20.411C19.632 24 19 23.368 19 22.589V20.411C19 19.632 19.632 19 20.411 19H21.589C22.368 19 23 19.632 23 20.411V22.589Z" stroke="white" stroke-width="2"/>
<path id="Stroke 32" fill-rule="evenodd" clip-rule="evenodd" d="M16 13.589C16 14.368 15.368 15 14.589 15H13.411C12.632 15 12 14.368 12 13.589V11.411C12 10.632 12.632 10 13.411 10H14.589C15.368 10 16 10.632 16 11.411V13.589Z" stroke="white" stroke-width="2"/>
</g>
</g>
</svg>
