<svg width="209" height="68" viewBox="0 0 209 68" fill="none" xmlns="http://www.w3.org/2000/svg">
<path fill-rule="evenodd" clip-rule="evenodd" d="M11.7701 66.7C4.03738 64.1224 -0.240381 56.5248 0.0104421 49.0528V6.1333H16.7682C5.64785 27.4712 28.8047 31.8274 33.0824 45.1428C36.1627 54.7246 29.158 66.7567 17.5864 67.531C15.667 67.6598 13.8057 67.3777 11.7701 66.7ZM19.6649 6.1333C20.2568 16.839 31.3114 24.1776 39.454 32.3134C45.0944 21.6522 38.4706 6.1379 23.8295 6.1333H19.6649Z" fill="#A8A8A8"/>
<path fill-rule="evenodd" clip-rule="evenodd" d="M50.0854 42.7263C54.0863 53.2389 47.4059 67.0189 33.6045 67.0189H24.3225V66.9929H24.2659C34.8586 66.4501 41.6828 57.0783 40.8783 47.7005C39.4116 30.5609 2.89388 27.9251 19.7113 0C14.34 20.8441 44.136 27.0971 50.0854 42.7263Z" fill="#A8A8A8"/>
<path d="M87.43 21.88H81.79V29H82.73V22.7H86.49V29H87.43V21.88ZM89.0468 21.88V29H89.9868V26.08H91.9168C93.3068 26.08 94.3468 25.54 94.3468 23.93C94.3468 22.45 93.3368 21.88 91.9768 21.88H89.0468ZM89.9868 22.69H91.6668C92.5968 22.69 93.4068 22.85 93.4068 23.99C93.4068 25.04 92.7068 25.29 91.7968 25.29H89.9868V22.69ZM98.4912 21.71C96.4212 21.71 95.0912 23.14 95.0912 25.36C95.0912 27.43 96.2212 29.17 98.5012 29.17C100.761 29.17 101.911 27.47 101.911 25.38C101.911 23.26 100.701 21.71 98.4912 21.71ZM98.4912 22.53C100.001 22.53 100.971 23.67 100.971 25.43C100.971 27.2 100.001 28.36 98.5112 28.36C97.0012 28.36 96.0312 27.21 96.0312 25.43C96.0312 23.91 96.8112 22.53 98.4912 22.53ZM103.089 29H104.269L107.769 22.95H107.789V29H108.729V21.88H107.539L104.049 27.91H104.029V21.88H103.089V29ZM115.606 26.92C115.606 26.14 115.116 25.39 114.176 25.21V25.18C114.776 25 115.356 24.38 115.356 23.63C115.356 22.29 114.286 21.71 112.916 21.71C111.406 21.71 110.266 22.41 110.206 23.94H111.116C111.226 22.91 111.836 22.49 112.886 22.49C113.686 22.49 114.416 22.75 114.416 23.63C114.416 24.6 113.766 24.91 112.866 24.91C112.706 24.91 112.386 24.91 112.226 24.89V25.67C112.376 25.66 112.666 25.65 112.866 25.65C113.816 25.65 114.666 25.86 114.666 26.9C114.666 27.81 113.896 28.39 112.916 28.39C111.776 28.39 110.836 27.94 110.796 26.65H109.886C109.886 28.37 111.136 29.16 112.836 29.16C114.836 29.16 115.606 27.8 115.606 26.92ZM116.79 21.88V29H119.72C121.08 29 122.42 28.63 122.42 26.99C122.42 26.05 121.93 25.39 121.05 25.19C121.69 24.96 122.1 24.36 122.1 23.66C122.1 22.35 121.01 21.88 119.83 21.88H116.79ZM117.71 22.68H119.49C120.33 22.68 121.16 22.73 121.16 23.8C121.16 24.87 120.2 24.93 119.4 24.93H117.71V22.68ZM117.71 25.67H119.43C120.38 25.67 121.47 25.66 121.47 26.9C121.47 28.15 120.54 28.21 119.59 28.21H117.71V25.67ZM126.636 21.71C124.566 21.71 123.236 23.14 123.236 25.36C123.236 27.43 124.366 29.17 126.646 29.17C128.906 29.17 130.056 27.47 130.056 25.38C130.056 23.26 128.846 21.71 126.636 21.71ZM126.636 22.53C128.146 22.53 129.116 23.67 129.116 25.43C129.116 27.2 128.146 28.36 126.656 28.36C125.146 28.36 124.176 27.21 124.176 25.43C124.176 23.91 124.956 22.53 126.636 22.53ZM137.503 30.77V28.18H136.713V21.88H132.163V23.26C132.163 25.22 131.773 27.22 131.233 28.18H130.533V30.77H131.443V29H136.593V30.77H137.503ZM135.773 28.18H132.273C132.713 27.29 133.083 25.44 133.083 23.67V22.7H135.773V28.18ZM144.48 26.31H143.54C143.39 27.64 142.65 28.36 141.44 28.36C139.96 28.36 139.05 27.25 139.05 25.44C139.05 23.94 139.76 22.53 141.45 22.53C142.51 22.53 143.27 23.09 143.48 24.02H144.42C144.28 22.5 142.87 21.72 141.47 21.72C139.28 21.72 138.1 23.41 138.1 25.45C138.1 27.73 139.37 29.17 141.4 29.17C143.16 29.17 144.32 28.12 144.48 26.31ZM150.431 21.88H144.711V22.7H147.101V29H148.041V22.7H150.431V21.88ZM151.233 21.88V29H154.163C155.523 29 156.863 28.63 156.863 26.99C156.863 26.05 156.373 25.39 155.493 25.19C156.133 24.96 156.543 24.36 156.543 23.66C156.543 22.35 155.453 21.88 154.273 21.88H151.233ZM152.153 22.68H153.933C154.773 22.68 155.603 22.73 155.603 23.8C155.603 24.87 154.643 24.93 153.843 24.93H152.153V22.68ZM152.153 25.67H153.873C154.823 25.67 155.913 25.66 155.913 26.9C155.913 28.15 154.983 28.21 154.033 28.21H152.153V25.67ZM161.079 21.71C159.009 21.71 157.679 23.14 157.679 25.36C157.679 27.43 158.809 29.17 161.089 29.17C163.349 29.17 164.499 27.47 164.499 25.38C164.499 23.26 163.289 21.71 161.079 21.71ZM161.079 22.53C162.589 22.53 163.559 23.67 163.559 25.43C163.559 27.2 162.589 28.36 161.099 28.36C159.589 28.36 158.619 27.21 158.619 25.43C158.619 23.91 159.399 22.53 161.079 22.53ZM87.57 34.88H86.34L82.73 38.41V34.88H81.79V42H82.73V39.5L83.91 38.38L86.49 42H87.69L84.57 37.74L87.57 34.88ZM91.4499 34.88H90.3899L87.5899 42H88.5899L89.3999 39.82H92.3899L93.1799 42H94.2299L91.4499 34.88ZM92.1099 39.07H89.6699L90.8999 35.78L92.1099 39.07ZM100.194 34.88H95.7243L95.5943 39.22C95.5443 41.03 95.1743 41.31 94.6643 41.31C94.5543 41.31 94.2843 41.29 94.1543 41.21V42.01C94.3343 42.08 94.6343 42.15 94.8343 42.15C95.9143 42.15 96.4343 41.14 96.4843 39.71L96.6243 35.7H99.2543V42H100.194V34.88ZM107.1 39.89C107.1 38.54 106.31 37.77 104.91 37.77H102.73V34.88H101.79V42H104.91C106.3 42 107.1 41.23 107.1 39.89ZM106.15 39.89C106.15 40.76 105.63 41.18 104.59 41.18H102.73V38.58H104.59C105.64 38.58 106.15 39.01 106.15 39.89ZM110.954 38.96H112.424V42H113.364V34.88H110.304C108.914 34.88 108.054 35.58 108.054 36.92C108.054 38.11 108.714 38.78 109.824 38.93L107.444 42H108.604L110.954 38.96ZM112.424 38.16H110.624C109.574 38.16 109.004 37.8 109.004 36.92C109.004 36.05 109.584 35.68 110.624 35.68H112.424V38.16ZM120.584 34.88H119.644V37.85H115.884V34.88H114.944V42H115.884V38.67H119.644V42H120.584V34.88ZM125.161 34.71C123.091 34.71 121.761 36.14 121.761 38.36C121.761 40.43 122.891 42.17 125.171 42.17C127.431 42.17 128.581 40.47 128.581 38.38C128.581 36.26 127.371 34.71 125.161 34.71ZM125.161 35.53C126.671 35.53 127.641 36.67 127.641 38.43C127.641 40.2 126.671 41.36 125.181 41.36C123.671 41.36 122.701 40.21 122.701 38.43C122.701 36.91 123.481 35.53 125.161 35.53ZM129.759 34.88V42H132.689C134.049 42 135.389 41.63 135.389 39.99C135.389 39.05 134.899 38.39 134.019 38.19C134.659 37.96 135.069 37.36 135.069 36.66C135.069 35.35 133.979 34.88 132.799 34.88H129.759ZM130.679 35.68H132.459C133.299 35.68 134.129 35.73 134.129 36.8C134.129 37.87 133.169 37.93 132.369 37.93H130.679V35.68ZM130.679 38.67H132.399C133.349 38.67 134.439 38.66 134.439 39.9C134.439 41.15 133.509 41.21 132.559 41.21H130.679V38.67ZM81.79 55H82.97L86.47 48.95H86.49V55H87.43V47.88H86.24L82.75 53.91H82.73V47.88H81.79V55ZM94.78 47.88H93.72L90.92 55H91.92L92.73 52.82H95.72L96.51 55H97.56L94.78 47.88ZM95.44 52.07H93L94.23 48.78L95.44 52.07ZM104.054 47.88H102.824L99.2144 51.41V47.88H98.2744V55H99.2144V52.5L100.394 51.38L102.974 55H104.174L101.054 50.74L104.054 47.88ZM110.799 52.31H109.859C109.709 53.64 108.969 54.36 107.759 54.36C106.279 54.36 105.369 53.25 105.369 51.44C105.369 49.94 106.079 48.53 107.769 48.53C108.829 48.53 109.589 49.09 109.799 50.02H110.739C110.599 48.5 109.189 47.72 107.789 47.72C105.599 47.72 104.419 49.41 104.419 51.45C104.419 53.73 105.689 55.17 107.719 55.17C109.479 55.17 110.639 54.12 110.799 52.31ZM116.915 47.88H111.985V55H116.965V54.18H112.925V51.72H116.655V50.93H112.925V48.7H116.915V47.88ZM124.129 52.31H123.189C123.039 53.64 122.299 54.36 121.089 54.36C119.609 54.36 118.699 53.25 118.699 51.44C118.699 49.94 119.409 48.53 121.099 48.53C122.159 48.53 122.919 49.09 123.129 50.02H124.069C123.929 48.5 122.519 47.72 121.119 47.72C118.929 47.72 117.749 49.41 117.749 51.45C117.749 53.73 119.019 55.17 121.049 55.17C122.809 55.17 123.969 54.12 124.129 52.31ZM131.345 52.31H130.405C130.255 53.64 129.515 54.36 128.305 54.36C126.825 54.36 125.915 53.25 125.915 51.44C125.915 49.94 126.625 48.53 128.315 48.53C129.375 48.53 130.135 49.09 130.345 50.02H131.285C131.145 48.5 129.735 47.72 128.335 47.72C126.145 47.72 124.965 49.41 124.965 51.45C124.965 53.73 126.235 55.17 128.265 55.17C130.025 55.17 131.185 54.12 131.345 52.31ZM134.332 53.14L134.212 53.39C133.972 53.89 133.652 54.37 133.152 54.37C132.712 54.37 132.482 54.27 132.352 54.19V54.99C132.552 55.08 132.912 55.17 133.232 55.17C133.932 55.17 134.522 54.77 135.122 53.55L137.892 47.88H136.882L134.842 52.22L132.762 47.88H131.732L134.332 53.14ZM140.864 47.88H139.804L137.004 55H138.004L138.814 52.82H141.804L142.594 55H143.644L140.864 47.88ZM141.524 52.07H139.084L140.314 48.78L141.524 52.07ZM144.398 47.88V55H145.338V52.08H147.268C148.658 52.08 149.698 51.54 149.698 49.93C149.698 48.45 148.688 47.88 147.328 47.88H144.398ZM145.338 48.69H147.018C147.948 48.69 148.758 48.85 148.758 49.99C148.758 51.04 148.058 51.29 147.148 51.29H145.338V48.69ZM153.843 47.71C151.773 47.71 150.443 49.14 150.443 51.36C150.443 53.43 151.573 55.17 153.853 55.17C156.113 55.17 157.263 53.47 157.263 51.38C157.263 49.26 156.053 47.71 153.843 47.71ZM153.843 48.53C155.353 48.53 156.323 49.67 156.323 51.43C156.323 53.2 155.353 54.36 153.863 54.36C152.353 54.36 151.383 53.21 151.383 51.43C151.383 49.91 152.163 48.53 153.843 48.53ZM158.44 47.88V55H161.37C162.73 55 164.07 54.63 164.07 52.99C164.07 52.05 163.58 51.39 162.7 51.19C163.34 50.96 163.75 50.36 163.75 49.66C163.75 48.35 162.66 47.88 161.48 47.88H158.44ZM159.36 48.68H161.14C161.98 48.68 162.81 48.73 162.81 49.8C162.81 50.87 161.85 50.93 161.05 50.93H159.36V48.68ZM159.36 51.67H161.08C162.03 51.67 163.12 51.66 163.12 52.9C163.12 54.15 162.19 54.21 161.24 54.21H159.36V51.67Z" fill="#A8A8A8"/>
</svg>
