<svg width="22" height="22" viewBox="0 0 22 22" fill="none" xmlns="http://www.w3.org/2000/svg">
<path d="M10.8135 1.95351C13.702 1.95351 14.0358 1.96808 15.1825 2.01182C16.2421 2.05555 16.8081 2.2305 17.1855 2.39086C17.6935 2.59496 18.0564 2.82821 18.4338 3.20725C18.8112 3.58629 19.0434 3.95075 19.2466 4.46099C19.3918 4.84003 19.566 5.42317 19.624 6.47281C19.6821 7.62451 19.6821 7.95981 19.6821 10.8609C19.6821 13.762 19.6676 14.0973 19.624 15.249C19.5805 16.3132 19.4063 16.8818 19.2466 17.2608C19.0434 17.7711 18.8112 18.1355 18.4338 18.5146C18.0564 18.8936 17.6935 19.1269 17.1855 19.331C16.8081 19.4768 16.2276 19.6517 15.1825 19.71C14.0358 19.7683 13.702 19.7683 10.8135 19.7683C7.92509 19.7683 7.59124 19.7537 6.44457 19.71C5.38499 19.6663 4.81891 19.4913 4.44153 19.331C3.93351 19.1269 3.57064 18.8936 3.19326 18.5146C2.81587 18.1355 2.58363 17.7711 2.38042 17.2608C2.23528 16.8818 2.0611 16.2987 2.00304 15.249C1.94498 14.0973 1.94498 13.762 1.94498 10.8609C1.94498 7.95981 1.9595 7.62451 2.00304 6.47281C2.04659 5.40859 2.22076 4.84003 2.38042 4.46099C2.58363 3.95075 2.81587 3.58629 3.19326 3.20725C3.57064 2.82821 3.93351 2.59496 4.44153 2.39086C4.81891 2.24507 5.3995 2.07013 6.44457 2.01182C7.59124 1.96808 7.92509 1.95351 10.8135 1.95351ZM10.8135 0C7.88154 0 7.50416 0.0145781 6.35748 0.0583133C5.21081 0.116627 4.42701 0.291568 3.7303 0.568558C3.01907 0.845547 2.40946 1.21001 1.81435 1.8223C1.21924 2.42002 0.841854 3.03231 0.566072 3.74665C0.304806 4.43184 0.116113 5.23365 0.0580539 6.38534C-5.31635e-06 7.53704 0 7.91607 0 10.8609C0 13.8058 0.0145095 14.1848 0.0580539 15.3365C0.116113 16.4882 0.290291 17.2754 0.566072 17.9752C0.841854 18.6895 1.20473 19.3018 1.81435 19.8995C2.40946 20.4972 3.01907 20.8763 3.7303 21.1533C4.4125 21.4157 5.21081 21.6052 6.35748 21.6635C7.50416 21.7218 7.88154 21.7218 10.8135 21.7218C13.7455 21.7218 14.1229 21.7072 15.2696 21.6635C16.4162 21.6052 17.2 21.4303 17.8968 21.1533C18.608 20.8763 19.2176 20.5118 19.8127 19.8995C20.4078 19.3018 20.7852 18.6895 21.061 17.9752C21.3223 17.29 21.5109 16.4882 21.569 15.3365C21.6271 14.1848 21.6271 13.8058 21.6271 10.8609C21.6271 7.91607 21.6125 7.53704 21.569 6.38534C21.5109 5.23365 21.3368 4.44641 21.061 3.74665C20.7852 3.03231 20.4223 2.42002 19.8127 1.8223C19.2176 1.22459 18.608 0.845547 17.8968 0.568558C17.2146 0.306146 16.4162 0.116627 15.2696 0.0583133C14.1229 0.0145781 13.76 0 10.8135 0Z" fill="white"/>
<path d="M10.8137 5.27734C7.75108 5.27734 5.26904 7.77025 5.26904 10.8463C5.26904 13.9223 7.75108 16.4152 10.8137 16.4152C13.8763 16.4152 16.3584 13.9223 16.3584 10.8463C16.3584 7.77025 13.8908 5.27734 10.8137 5.27734ZM10.8137 14.4763C8.82517 14.4763 7.21402 12.8581 7.21402 10.8609C7.21402 8.86363 8.82517 7.24543 10.8137 7.24543C12.8022 7.24543 14.4134 8.86363 14.4134 10.8609C14.4134 12.8581 12.8022 14.4763 10.8137 14.4763Z" fill="white"/>
<path d="M16.5906 6.35619C17.3041 6.35619 17.8825 5.77529 17.8825 5.05871C17.8825 4.34213 17.3041 3.76123 16.5906 3.76123C15.8772 3.76123 15.2988 4.34213 15.2988 5.05871C15.2988 5.77529 15.8772 6.35619 16.5906 6.35619Z" fill="white"/>
</svg>
