<svg width="20" height="20" viewBox="0 0 20 20" fill="none" xmlns="http://www.w3.org/2000/svg">
<path d="M13.4375 13.125C17.0619 13.125 20 10.1869 20 6.5625C20 2.93813 17.0619 0 13.4375 0C9.81313 0 6.875 2.93813 6.875 6.5625C6.875 10.1869 9.81313 13.125 13.4375 13.125Z" fill="#383838"/>
<path d="M13.4875 8.52762C13.2483 8.03595 13.0158 7.43595 12.84 6.72928C13.3792 6.51012 13.9342 6.39345 14.4483 6.39345C14.565 6.39345 14.6817 6.39928 14.7933 6.41012C14.5783 7.00178 14.2375 7.66345 13.6992 8.29928C13.6242 8.37428 13.5575 8.44928 13.4825 8.52428L13.4875 8.52762ZM10.8475 9.27762C10.6092 8.71928 11.1258 7.80845 11.9675 7.20095C12.1842 7.97595 12.4508 8.63428 12.7258 9.16762C12.2092 9.50928 11.6842 9.69262 11.2925 9.62595C11.0758 9.59262 10.9425 9.49262 10.8508 9.28428L10.8475 9.27762ZM16.1175 4.69095H15.1592C15.1508 4.86595 15.1258 5.13262 15.0675 5.46595C14.3175 5.34928 13.4675 5.45762 12.6592 5.75762C12.5675 5.21595 12.5175 4.70762 12.4842 4.26595C15.3758 4.09928 17.0842 3.39095 17.1592 3.35762L16.7925 2.45762C16.7758 2.46595 15.1592 3.12428 12.4508 3.28262C12.4467 2.60762 12.4925 2.19928 12.4925 2.18262H11.5175C11.5008 2.36595 11.4742 2.76595 11.4758 3.31595H11.3892C10.5267 3.31595 9.72251 3.24928 9.53418 3.23262V4.20762C9.81751 4.23262 10.5025 4.28512 11.2817 4.28512H11.5192C11.5567 4.83845 11.6275 5.47678 11.7575 6.16845C10.4742 6.93512 9.46085 8.42678 9.97835 9.63928C10.195 10.1476 10.6175 10.4743 11.1617 10.5576C11.2533 10.5701 11.3475 10.5768 11.445 10.5768C11.995 10.5768 12.6267 10.3518 13.2283 9.96845C13.62 10.5601 13.9367 10.8743 13.97 10.9018L14.6283 10.1935C14.62 10.1893 14.34 9.91428 13.9867 9.37428C14.145 9.22762 14.2983 9.07428 14.44 8.90762C15.0817 8.15095 15.48 7.36595 15.7283 6.66595C15.945 6.79262 16.1617 6.98262 16.2717 7.26595C16.655 8.23262 16.1025 9.34928 15.58 9.83512L16.2383 10.5468C17.1008 9.73845 17.6967 8.23012 17.1675 6.90095C16.9592 6.37595 16.5592 5.96762 15.9983 5.70928C16.09 5.25928 16.12 4.90095 16.1317 4.65928L16.1175 4.69095Z" fill="white"/>
<path d="M6.5625 20C10.1869 20 13.125 17.0619 13.125 13.4375C13.125 9.81313 10.1869 6.875 6.5625 6.875C2.93813 6.875 0 9.81313 0 13.4375C0 17.0619 2.93813 20 6.5625 20Z" fill="#FF0000"/>
<path d="M7.7585 13.8295H5.36683L6.56266 10.7711L7.7585 13.8295ZM7.07933 9.16113H6.046L2.8335 16.9695H4.14766L4.93766 14.892H8.18766L8.97766 16.9695H10.2918L7.07933 9.16113Z" fill="white"/>
</svg>
