<svg width="41" height="54" viewBox="0 0 41 54" fill="none" xmlns="http://www.w3.org/2000/svg">
<path fill-rule="evenodd" clip-rule="evenodd" d="M9.28026 53.1665C3.18332 51.1119 -0.189531 45.0558 0.00823322 39.0999V4.88867H13.2211C4.45312 21.8971 22.7114 25.3694 26.0842 35.9832C28.5129 43.6209 22.9899 53.2117 13.8662 53.8289C12.3529 53.9316 10.8853 53.7067 9.28026 53.1665ZM15.505 4.88867C15.9717 13.4222 24.6878 19.2718 31.1079 25.7569C35.5552 17.2588 30.3326 4.89234 18.7886 4.88867H15.505Z" fill="white"/>
<path fill-rule="evenodd" clip-rule="evenodd" d="M39.4903 34.0572C42.6449 42.4368 37.3776 53.4209 26.4957 53.4209H19.1772V53.4001H19.1326C27.4846 52.9674 32.8652 45.4972 32.2309 38.0221C31.0745 24.3601 2.28162 22.2591 15.5415 0C11.3064 16.6149 34.7994 21.5991 39.4903 34.0572Z" fill="white"/>
</svg>
