<svg width="18" height="23" viewBox="0 0 18 23" fill="none" xmlns="http://www.w3.org/2000/svg">
<path d="M8.70101 21L8.20207 21.56L8.70338 22.0066L9.20257 21.5576L8.70101 21ZM8.70101 12.0111C6.87369 12.0111 5.3918 10.5292 5.3918 8.70193H3.8918C3.8918 11.3577 6.04526 13.5111 8.70101 13.5111V12.0111ZM5.3918 8.70193C5.3918 6.87461 6.87369 5.39272 8.70101 5.39272V3.89272C6.04526 3.89272 3.8918 6.04618 3.8918 8.70193H5.3918ZM8.70101 5.39272C10.5283 5.39272 12.0102 6.87461 12.0102 8.70193H13.5102C13.5102 6.04618 11.3568 3.89272 8.70101 3.89272V5.39272ZM12.0102 8.70193C12.0102 10.5292 10.5283 12.0111 8.70101 12.0111V13.5111C11.3568 13.5111 13.5102 11.3577 13.5102 8.70193H12.0102ZM8.70101 0.25C4.03347 0.25 0.25 4.03462 0.25 8.70193H1.75C1.75 4.86282 4.86213 1.75 8.70101 1.75V0.25ZM0.25 8.70193C0.25 10.2279 0.786777 11.7985 1.53593 13.2593C2.28899 14.7277 3.28452 16.1387 4.26596 17.3595C5.24922 18.5827 6.23048 19.63 6.96511 20.371C7.33288 20.7419 7.63994 21.0372 7.85601 21.2406C7.96407 21.3424 8.04945 21.4212 8.10837 21.4751C8.13783 21.502 8.16069 21.5227 8.17646 21.537C8.18435 21.5441 8.19046 21.5496 8.19475 21.5534C8.1969 21.5553 8.19858 21.5569 8.19981 21.5579C8.20042 21.5585 8.20091 21.5589 8.20129 21.5593C8.20148 21.5594 8.20168 21.5596 8.20177 21.5597C8.20194 21.5598 8.20207 21.56 8.70101 21C9.19994 20.44 9.20002 20.4401 9.20007 20.4401C9.20004 20.4401 9.20006 20.4401 9.20002 20.4401C9.19993 20.44 9.19972 20.4398 9.1994 20.4396C9.19876 20.439 9.19766 20.438 9.1961 20.4366C9.19298 20.4338 9.18806 20.4294 9.18137 20.4233C9.168 20.4113 9.14761 20.3928 9.12067 20.3682C9.06678 20.3189 8.98671 20.245 8.8842 20.1485C8.67912 19.9554 8.38454 19.6722 8.03033 19.3149C7.32103 18.5995 6.37704 17.5916 5.43505 16.4197C4.49124 15.2457 3.56152 13.9219 2.87064 12.5748C2.17585 11.22 1.75 9.89416 1.75 8.70193H0.25ZM8.70101 21C9.20257 21.5576 9.2027 21.5575 9.20287 21.5573C9.20296 21.5573 9.20315 21.5571 9.20334 21.5569C9.20372 21.5566 9.20421 21.5561 9.20482 21.5556C9.20603 21.5545 9.20771 21.553 9.20985 21.551C9.21412 21.5472 9.22023 21.5416 9.2281 21.5345C9.24384 21.5201 9.26667 21.4993 9.2961 21.4721C9.35496 21.4178 9.44027 21.3383 9.54827 21.2358C9.76421 21.0308 10.0711 20.7333 10.4387 20.3599C11.1731 19.614 12.154 18.5609 13.1368 17.3341C14.1179 16.1096 15.113 14.697 15.8658 13.2323C16.6143 11.7759 17.152 10.2129 17.152 8.70193H15.652C15.652 9.87656 15.2271 11.1937 14.5317 12.5466C13.8405 13.8914 12.9104 15.2177 11.9662 16.3962C11.0238 17.5725 10.0794 18.5868 9.36984 19.3076C9.01548 19.6675 8.72076 19.9531 8.51555 20.1479C8.41297 20.2453 8.33284 20.3199 8.27889 20.3697C8.25192 20.3946 8.2315 20.4133 8.2181 20.4255C8.2114 20.4316 8.20646 20.436 8.20333 20.4389C8.20176 20.4403 8.20065 20.4413 8.2 20.4419C8.19968 20.4422 8.19947 20.4424 8.19938 20.4424C8.19933 20.4425 8.19935 20.4425 8.19932 20.4425C8.19937 20.4425 8.19945 20.4424 8.70101 21ZM17.152 8.70193C17.152 4.03462 13.3685 0.25 8.70101 0.25V1.75C12.5399 1.75 15.652 4.86282 15.652 8.70193H17.152Z" fill="#E7C35D"/>
</svg>
