<svg width="20" height="18" viewBox="0 0 20 18" fill="none" xmlns="http://www.w3.org/2000/svg">
<g id="warning">
<path id="Shape" d="M10.0117 13C9.46133 13 9 13.456 9 14C9 14.544 9.46133 15 10.0117 15C10.5418 15 11.0234 14.544 10.9991 14.024C11.0234 13.452 10.5661 13 10.0117 13Z" fill="#E7C35D"/>
<path id="Shape_2" fill-rule="evenodd" clip-rule="evenodd" d="M19.5215 12.738C20.1629 13.8309 20.1588 15.1383 19.5133 16.2352C18.8637 17.3402 17.7084 18 16.4216 18H3.56144C2.27871 18 1.13166 17.3483 0.490293 16.2635C-0.159294 15.1666 -0.163405 13.8511 0.477959 12.7461L6.92449 1.75669C7.56174 0.659771 8.71291 0 10.0039 0C11.2948 0 12.446 0.655723 13.0832 1.76074L19.5215 12.738ZM16.4175 16.4093C17.1246 16.4093 17.7578 16.049 18.1155 15.4419C18.469 14.8388 18.4732 14.1264 18.1278 13.5354L11.6854 2.55003C11.3359 1.94693 10.7069 1.58669 10.0039 1.58669C9.29671 1.58669 8.67179 1.94288 8.32233 2.54599L1.8758 13.5314C1.52223 14.1385 1.52634 14.859 1.87991 15.4621C2.22938 16.0571 2.85841 16.4093 3.55733 16.4093H16.4175Z" fill="#E7C35D"/>
<path id="Shape_3" d="M9.76436 5.03105C9.29307 5.18064 9 5.65579 9 6.23214C9.02376 6.57971 9.04356 6.93167 9.06733 7.27924C9.13465 8.60352 9.20198 9.9014 9.26931 11.2257C9.29307 11.6744 9.60594 12 10.0099 12C10.4139 12 10.7307 11.6524 10.7505 11.1993C10.7505 10.9265 10.7505 10.6757 10.7743 10.3986C10.8178 9.54943 10.8653 8.70031 10.9089 7.85119C10.9327 7.30124 10.9762 6.75129 11 6.20134C11 6.00336 10.9762 5.82738 10.9089 5.65139C10.7069 5.15864 10.2356 4.90786 9.76436 5.03105Z" fill="#E7C35D"/>
</g>
</svg>
